<?xml version="1.0" encoding="UTF-8"?>
<svg id="Calque_1" data-name="Calque 1" xmlns="http://www.w3.org/2000/svg" viewBox="0 0 492.08 492.08">
  <defs>
    <style>
      .cls-1 {
        fill: #e8bed4;
      }

      .cls-2 {
        fill: #151930;
      }
    </style>
  </defs>
  <path class="cls-1" d="M382.42,327.47l-5.69,21.24-62.17-16.54.27-.91c9.15-31.67,20.44-71.94,22.52-84.85,2.7-14.93,2.1-30.56-1.75-45.23-9.55-41.2-40.84-73.38-81.84-84.12-51.32-13.24-105.76,11.34-129.77,58.54-.51.91-.97,1.84-1.46,2.79l-.33.71c-.78,1.55-1.46,3.06-2.1,4.7-.6,1.46-1.26,3.12-1.9,4.94-.27.64-.51,1.28-.73,1.95-.49,1.48-.95,2.99-1.4,4.5l-.38,1.26c-.18.55-.33,1.13-.49,1.71-.49,1.82-.89,3.43-1.17,5.03-.73,3.21-1.28,6.49-1.66,9.79-.31,2.52-.55,4.98-.71,7.15-.16,2.24-.22,4.41-.2,6.64-.33,51.85,34.4,97.3,84.5,110.59l108.64,29.01,3.34-11.47,40.27,10.7-1.06,4.34,31.34,8.35.84.18c.49.07,1.02.13,1.51.13,4.12,0,7.8-2.72,9.01-6.91l10.5-39.47-17.92-4.74Z"/>
  <g>
    <path class="cls-2" d="M276.17,251.5c-.85-2.82-2.77-5.16-5.42-6.5-2.62-1.4-5.62-1.68-8.45-.83-2.82.91-5.13,2.82-6.53,5.42-6.37,12.1-18.58,10.13-20.94,9.59-.88-.21-1.74-.31-2.57-.31-5,0-9.54,3.39-10.78,8.45-1.48,5.86,1.97,11.69,7.8,13.32,1.71.41,3.29.7,4.95.86,6.61.67,29.12,1.17,41.15-21.56,1.35-2.59,1.63-5.6.78-8.42Z"/>
    <path class="cls-2" d="M224.66,200.95c-2.98,10.93-13.53,17.85-24.46,16.71-1.22-.13-2.49-.34-3.71-.73-12.2-3.32-19.38-15.99-16.04-28.16.49-1.76,1.66-3.26,3.24-4.17,1.61-.91,3.5-1.11,5.26-.65,1.76.52,3.24,1.66,4.15,3.24.91,1.61,1.14,3.45.65,5.26-.65,2.33-.34,4.79.91,6.89,1.17,2.15,3.16,3.68,5.47,4.33,2.33.62,4.85.34,6.94-.88,2.1-1.22,3.68-3.16,4.28-5.49.52-1.81,1.66-3.26,3.26-4.2,1.61-.91,3.45-1.14,5.26-.65,1.76.52,3.24,1.66,4.15,3.24.91,1.61,1.14,3.45.65,5.26Z"/>
    <path class="cls-2" d="M277.05,215.36c-1.63,5.88-5.47,10.8-10.78,13.84-4.22,2.38-8.96,3.37-13.65,2.88-1.27-.13-2.51-.36-3.76-.7-5.91-1.63-10.8-5.44-13.84-10.78-3.03-5.34-3.81-11.5-2.18-17.41.47-1.76,1.63-3.24,3.24-4.17,1.61-.91,3.45-1.14,5.23-.65,1.76.49,3.24,1.63,4.15,3.24.93,1.61,1.17,3.47.67,5.23-1.35,4.87,1.53,9.9,6.37,11.25,4.85,1.32,9.9-1.53,11.22-6.4.49-1.76,1.66-3.24,3.24-4.15,1.61-.93,3.47-1.17,5.26-.67,3.65,1.01,5.8,4.82,4.82,8.5Z"/>
  </g>
</svg>