<?xml version="1.0" encoding="UTF-8"?>
<svg id="Calque_1" data-name="Calque 1" xmlns="http://www.w3.org/2000/svg" viewBox="0 0 492.08 492.08" width="492.08" height="492.08">
  <defs>
    <style>
      .cls-1 {
        fill: #fff;
      }

      .cls-2 {
        fill: #3052a0;
      }
    </style>
  </defs>
  <path class="cls-1" d="M226.11,205.24c-2.57,9.42-11.65,15.38-21.07,14.4-1.05-.11-2.14-.29-3.19-.63-10.51-2.86-16.7-13.77-13.82-24.26.42-1.52,1.43-2.81,2.79-3.59,1.38-.78,3.01-.96,4.53-.56,1.52.45,2.79,1.43,3.57,2.79.78,1.38.98,2.97.56,4.53-.56,2.01-.29,4.13.78,5.94,1,1.85,2.72,3.17,4.71,3.73,2.01.54,4.17.29,5.98-.76,1.81-1.05,3.17-2.72,3.68-4.73.45-1.56,1.43-2.81,2.81-3.62,1.38-.78,2.97-.98,4.53-.56,1.52.45,2.79,1.43,3.57,2.79.78,1.38.98,2.97.56,4.53Z"/>
  <path class="cls-2" d="M384.56,328.11l-5.74,21.41-62.66-16.68.27-.92c9.22-31.92,20.6-72.5,22.7-85.52,2.72-15.05,2.12-30.81-1.76-45.58-9.62-41.52-41.16-73.96-82.48-84.78-51.72-13.35-106.59,11.43-130.79,59-.51.92-.98,1.85-1.47,2.81l-.33.71c-.78,1.56-1.47,3.08-2.12,4.73-.6,1.47-1.27,3.15-1.92,4.98-.27.65-.51,1.29-.74,1.96-.49,1.5-.96,3.01-1.41,4.53l-.38,1.27c-.18.56-.33,1.14-.49,1.72-.49,1.83-.89,3.46-1.18,5.07-.74,3.24-1.29,6.54-1.67,9.87-.31,2.54-.56,5.02-.71,7.21-.16,2.25-.22,4.44-.2,6.7-.33,52.26,34.67,98.06,85.16,111.46l109.49,29.24,3.37-11.56,40.58,10.78-1.07,4.38,31.59,8.42.85.18c.49.07,1.03.13,1.52.13,4.15,0,7.86-2.75,9.09-6.96l10.58-39.78-18.06-4.78ZM200.9,217.44c-1.23-.13-2.51-.34-3.73-.73-12.3-3.34-19.53-16.11-16.17-28.39.5-1.78,1.67-3.29,3.26-4.2,1.62-.91,3.53-1.12,5.3-.65,1.78.52,3.26,1.67,4.18,3.26.91,1.62,1.15,3.47.65,5.3-.65,2.35-.34,4.83.91,6.95,1.18,2.17,3.19,3.71,5.51,4.36,2.35.63,4.88.34,7-.89,2.12-1.23,3.71-3.19,4.31-5.54.52-1.83,1.67-3.29,3.29-4.23,1.62-.91,3.47-1.15,5.3-.65,1.78.52,3.26,1.67,4.18,3.26.91,1.62,1.15,3.47.65,5.3-3,11.02-13.63,17.99-24.65,16.84ZM276.69,260.03c-12.12,22.9-34.81,22.41-41.47,21.73-1.67-.16-3.26-.44-4.99-.86-5.88-1.65-9.35-7.52-7.86-13.42,1.25-5.09,5.82-8.51,10.86-8.51.84,0,1.7.1,2.59.31,2.38.55,14.68,2.53,21.1-9.66,1.41-2.61,3.73-4.54,6.58-5.46,2.85-.86,5.88-.57,8.51.84,2.66,1.36,4.6,3.71,5.46,6.55.86,2.85.57,5.88-.78,8.49ZM278.36,215.12c-1.65,5.93-5.51,10.89-10.86,13.95-4.26,2.4-9.04,3.4-13.76,2.9-1.28-.13-2.53-.37-3.79-.71-5.95-1.65-10.89-5.48-13.95-10.86-3.06-5.38-3.84-11.6-2.19-17.55.47-1.78,1.65-3.26,3.26-4.2,1.62-.91,3.47-1.15,5.28-.65,1.78.5,3.26,1.65,4.18,3.26.94,1.62,1.18,3.5.68,5.28-1.36,4.91,1.54,9.98,6.42,11.33,4.88,1.33,9.98-1.54,11.31-6.45.5-1.78,1.67-3.26,3.26-4.18,1.62-.94,3.5-1.18,5.3-.68,3.68,1.02,5.85,4.86,4.86,8.57Z"/>
</svg>