<?xml version="1.0" encoding="UTF-8" standalone="no"?>
<svg
   id="Calque_1"
   data-name="Calque 1"
   viewBox="0 0 488.77 445.53"
   version="1.1"
   sodipodi:docname="principal - couleurs blanc.svg"
   inkscape:export-filename="principal - couleurs HR Blanc.png"
   inkscape:export-xdpi="1500"
   inkscape:export-ydpi="1500"
   inkscape:version="1.3.2 (091e20e, 2023-11-25, custom)"
   xmlns:inkscape="http://www.inkscape.org/namespaces/inkscape"
   xmlns:sodipodi="http://sodipodi.sourceforge.net/DTD/sodipodi-0.dtd"
   xmlns="http://www.w3.org/2000/svg"
   xmlns:svg="http://www.w3.org/2000/svg">
  <sodipodi:namedview
     id="namedview53"
     pagecolor="#ffffff"
     bordercolor="#000000"
     borderopacity="0.25"
     inkscape:showpageshadow="2"
     inkscape:pageopacity="0.0"
     inkscape:pagecheckerboard="0"
     inkscape:deskcolor="#d1d1d1"
     inkscape:zoom="1.7439903"
     inkscape:cx="244.26741"
     inkscape:cy="222.765"
     inkscape:window-width="1920"
     inkscape:window-height="991"
     inkscape:window-x="-9"
     inkscape:window-y="-9"
     inkscape:window-maximized="1"
     inkscape:current-layer="g33" />
  <defs
     id="defs1">
    <style
       id="style1">
      .cls-1 {
        fill: #151930;
      }

      .cls-2 {
        fill: #30519f;
      }

      .cls-3 {
        fill: #809bd0;
      }

      .cls-4 {
        fill: #f9d39d;
      }

      .cls-5 {
        fill: #e97126;
      }
    </style>
  </defs>
  <g
     id="g33">
    <path
       id="Union_27"
       data-name="Union 27"
       class="cls-3"
       d="m 402.25,129.96 1.6,-0.44 -0.97,-3.52 -1.6,0.45 c -0.47,-1.02 -1.09,-1.95 -1.84,-2.77 l 1.03,-1.31 -2.86,-2.25 -1.03,1.3 c -0.97,-0.54 -2.03,-0.92 -3.12,-1.14 l 0.05,-1.66 -3.63,-0.12 -0.06,1.66 c -1.1,0.14 -2.18,0.46 -3.19,0.93 l -0.94,-1.37 -3,2.06 0.94,1.37 c -0.81,0.77 -1.49,1.66 -2.02,2.64 l -1.57,-0.54 -1.2,3.43 1.57,0.55 c -0.18,1.1 -0.2,2.22 -0.05,3.33 l -1.59,0.49 1.07,3.48 1.59,-0.49 c 0.5,0.99 1.15,1.91 1.92,2.71 l -0.99,1.33 2.93,2.17 0.99,-1.34 c 0.99,0.51 2.06,0.86 3.16,1.04 v 1.67 h 3.64 v -1.66 c 0.87,-0.15 1.72,-0.39 2.53,-0.74 l 0.9,1.4 3.06,-1.97 -0.9,-1.4 c 0.83,-0.74 1.54,-1.61 2.11,-2.57 l 1.55,0.59 1.31,-3.4 -1.56,-0.59 c 0.22,-1.09 0.28,-2.21 0.17,-3.32 z m -10.97,4.64 c -1.94,0 -3.52,-1.58 -3.52,-3.52 0,-0.97 0.4,-1.85 1.03,-2.48 0.64,-0.64 1.52,-1.03 2.49,-1.03 1.94,0 3.51,1.57 3.51,3.51 0,1.94 -1.57,3.52 -3.51,3.52 z" />
    <path
       class="cls-1"
       d="m 281.28,109.98 c -1.27,-0.3 -2.43,-0.08 -3.46,0.44 -0.22,0.11 -0.43,0.23 -0.63,0.36 -0.17,0.18 -0.26,0.37 -0.3,0.55 v 0 c 0,0 -0.41,0.42 -0.41,0.42 -0.01,-0.07 -0.02,-0.15 -0.02,-0.23 0,-0.04 0.01,-0.09 0.01,-0.14 0,0 0.01,-0.03 0.01,-0.05 -0.16,0.14 -0.32,0.28 -0.47,0.44 -0.3,0.3 -0.59,0.62 -0.84,0.97 0,0 -0.02,0.01 -0.02,0.02 -0.12,0.15 -0.23,0.31 -0.33,0.48 -0.02,0.01 -0.03,0.02 -0.03,0.03 0.03,-0.07 0.07,-0.15 0.11,-0.22 0.62,-1.24 1.55,-2.34 2.7,-3.06 0.11,-0.08 0.23,-0.14 0.35,-0.21 0.08,-0.04 0.17,-0.09 0.26,-0.13 h 0.01 c 0.21,-0.09 0.43,-0.17 0.65,-0.24 0.76,-0.25 1.59,-0.33 2.46,-0.19 0.71,0.04 2.06,-0.49 1.89,-1.32 -0.24,-0.47 -1.03,-0.72 -1.58,-0.89 -0.07,-0.02 -0.14,-0.03 -0.2,-0.05 -0.16,-0.04 -0.33,-0.08 -0.5,-0.12 -0.05,-0.01 -0.09,-0.02 -0.14,-0.03 -0.07,-0.01 -0.14,-0.02 -0.2,-0.03 -1.09,-0.2 -2.2,-0.25 -3.28,-0.14 -5.62,0.57 -9.42,4.97 -13.11,8.78 -0.29,0.29 -0.37,0.38 -0.84,0.85 -0.15,0.16 -0.65,0.37 -1.36,0.59 -1.46,0.49 -3.84,0.98 -5.99,1.26 l 0.67,-0.16 h 0.02 c 0,0 0.01,-0.01 0.01,-0.01 h 0.03 v -0.02 c 2.91,-0.76 5.78,-2.15 6.1,-2.46 0.36,-0.35 0.49,-0.61 0.77,-0.92 0.01,-0.02 0.03,-0.04 0.05,-0.07 2.34,-2.72 5.55,-6.08 9,-7.83 2.63,-1.24 5.87,-1.67 8.81,-0.79 0.07,0.02 0.13,0.03 0.2,0.06 0.05,0.01 0.1,0.02 0.15,0.04 0.17,0.05 0.33,0.12 0.5,0.18 0.26,0.11 0.52,0.22 0.78,0.34 2.46,1.41 0.31,3.79 -1.83,3.5 z"
       id="path20" />
    <path
       class="cls-1"
       d="m 277.07,124.52 c -0.06,0 -0.11,0.02 -0.17,0.03 -0.13,0.02 -0.26,0.03 -0.39,0.04 0.03,-0.02 0.05,-0.05 0.07,-0.07 h 0.03 c 0.11,0 0.21,0 0.31,0 0.05,0 0.11,0 0.15,0 z"
       id="path21" />
    <path
       class="cls-1"
       d="m 265.87,127.19 c -2.47,0.73 -3.1,0.88 -4.04,1.1 h -0.02 c 0,0 -0.39,0.1 -0.39,0.1 h -0.04 c -0.16,0.05 -0.34,0.09 -0.53,0.14 1.95,-0.86 3.6,-1.67 4.56,-2.14 0.1,0.24 0.23,0.47 0.39,0.72 0.02,0.02 0.05,0.05 0.07,0.08 z"
       id="path22" />
    <path
       class="cls-2"
       d="m 261.61,129.15 c -0.73,0.38 -1.82,0.84 -3.11,1.33 -0.39,0.14 -0.79,0.27 -1.2,0.41 -1.28,0.43 -2.6,0.84 -3.96,1.2 -2.75,0.76 -5.66,1.31 -8.45,1.72 -0.63,0.09 -1.27,0.17 -1.9,0.25 -4.54,0.57 -8.98,0.85 -13.03,0.96 -0.39,0 -0.77,0.02 -1.15,0.03 -4.91,0.1 -9.17,-0.06 -12.31,-0.41 -1.27,-0.16 -1.87,-0.27 -1.87,-0.27 l 2.25,-13.89 c 0.4,0.03 0.79,0.07 1.13,0.1 1.61,0.16 3.49,0.22 5.27,0.25 1.79,0.04 3.55,0 5.25,-0.02 0.7,-0.02 1.4,-0.04 2.08,-0.07 2.62,-0.1 5.07,-0.26 7.34,-0.47 2.06,-0.19 3.97,-0.41 5.71,-0.66 0.68,-0.1 1.33,-0.2 1.95,-0.31 0.55,-0.1 1.07,-0.2 1.6,-0.29 0.49,-0.11 0.98,-0.22 1.45,-0.32 0.96,-0.23 1.9,-0.46 2.77,-0.72 2.25,-0.65 1.98,-0.57 2.49,-0.68 0.38,-0.08 0.69,-0.15 0.96,-0.2 0.53,-0.11 0.85,-0.13 0.96,-0.11 0.89,0.22 0.91,0.95 0.91,0.95 l -0.03,0.02 h -0.02 c 0,0 -0.01,0.01 -0.01,0.01 l -0.67,0.16 c 0.33,1.98 0.91,3.93 1.81,5.73 0.85,1.69 1.68,3.31 3.02,4.68 0.19,-0.05 0.37,-0.09 0.53,-0.13 h 0.04 c 0,0 0.39,-0.1 0.39,-0.1 h 0.02 c 0,0 0.41,0.63 -0.22,0.85 z"
       id="path23"
       style="fill:#ffffff" />
    <polygon
       class="cls-1"
       points="256.75,117.94 256.72,117.95 256.75,117.93 "
       id="polygon23" />
    <path
       class="cls-5"
       d="m 317.32,94.48 c -1.38,2.48 -3.39,4.56 -5.83,6.03 v 0 c 0,0 -3.89,-3.76 -3.89,-3.76 v 0 c 0.11,-1.38 -0.07,-2.46 -0.63,-3.15 -1.01,0.62 -2.21,0.66 -2.97,0.03 l -13.51,13.96 -1.66,3.4 c -0.55,0.69 -1.11,1.38 -1.68,2.06 -0.02,0.03 -0.05,0.05 -0.07,0.08 -0.07,-0.05 -0.13,-0.11 -0.2,-0.16 -0.18,-0.13 -0.36,-0.26 -0.56,-0.37 -0.04,-0.02 -0.07,-0.04 -0.11,-0.06 -0.85,-0.48 -1.82,-0.8 -2.61,-0.94 -1.33,-0.19 -4.13,-0.06 -3.82,1.89 0.04,0.14 0.09,0.27 0.16,0.39 l -0.34,-0.07 -1.55,-0.23 c -0.42,-0.03 -0.84,-0.04 -1.26,-0.01 -2.33,0.26 -3.27,2.08 -1.18,3.49 -0.8,0.06 -1.47,0.24 -1.94,0.56 -1.2,0.91 -0.66,2.66 0.55,3.04 -0.39,0.06 -0.76,0.17 -1.1,0.34 -1.16,0.78 -0.64,2.3 0.32,2.8 0.79,0.55 1.76,0.84 2.74,0.82 h 0.06 c 0.1,0 0.19,-0.02 0.28,-0.03 l -0.36,0.36 c -0.04,0.05 -0.08,0.09 -0.13,0.13 -0.09,0.09 -0.17,0.17 -0.26,0.25 l -0.48,0.48 c -0.32,0.31 -0.64,0.61 -0.96,0.92 -0.15,0.15 -0.31,0.3 -0.47,0.45 -0.44,0.42 -0.88,0.84 -1.32,1.24 l -1.39,1.26 c -0.32,0.29 -0.85,0.36 -1.49,0.21 -0.87,-0.17 -1.93,-0.74 -2.89,-1.66 -0.36,-0.35 -0.66,-0.7 -0.89,-1.04 -0.02,-0.03 -0.05,-0.06 -0.07,-0.08 -0.16,-0.25 -0.29,-0.48 -0.39,-0.72 -0.03,-0.06 -0.06,-0.12 -0.09,-0.18 -0.01,-0.04 -0.03,-0.07 -0.04,-0.1 -0.13,-0.34 -0.2,-0.66 -0.21,-0.94 -0.01,-0.41 0.08,-0.75 0.28,-0.98 0.59,-0.72 1.38,-1.68 1.61,-1.96 2.6,-3.13 5.31,-6.14 8.13,-9.06 0,-0.01 0.01,-0.02 0.03,-0.03 0.39,-0.4 0.77,-0.8 1.16,-1.19 l 0.61,-0.61 0.49,-0.49 0.26,-0.26 c 0.06,-0.05 0.12,-0.11 0.18,-0.17 1.03,-0.52 2.19,-0.74 3.46,-0.44 2.14,0.29 4.29,-2.09 1.83,-3.5 -0.26,-0.12 -0.52,-0.23 -0.78,-0.34 0.1,-0.09 0.21,-0.19 0.32,-0.29 0.12,-0.12 0.24,-0.23 0.37,-0.35 l 3.48,-1.69 13.54,-14 c -0.91,-0.92 -0.74,-2.62 0.42,-3.81 l 1.15,-1.19 c -3.04,-2.65 -7.61,-3.57 -10.87,-1.22 l -1.26,0.92 -0.65,-0.66 1.3,-1.34 c 4.07,-4.2 10.78,-4.31 14.97,-0.24 l 1.16,1.11 1.11,1.07 1.13,1.09 1.69,1.65 v 0 c 0.63,0.73 0.67,1.83 0.15,2.84 0.66,0.39 1.67,0.63 3.09,0.67 l 3.89,3.78 z"
       id="path24" />
    <path
       class="cls-1"
       d="m 287.07,113.13 c -0.07,-0.05 -0.13,-0.11 -0.2,-0.16 -0.18,-0.13 -0.36,-0.26 -0.56,-0.37 -0.04,-0.02 -0.07,-0.04 -0.11,-0.06 -0.85,-0.48 -1.82,-0.8 -2.61,-0.94 -1.33,-0.19 -4.13,-0.06 -3.82,1.89 0.04,0.14 0.09,0.27 0.16,0.39 l -0.34,-0.07 -1.55,-0.23 c -0.42,-0.03 -0.84,-0.04 -1.26,-0.01 -2.33,0.26 -3.27,2.08 -1.18,3.49 -0.8,0.06 -1.47,0.24 -1.94,0.56 -1.2,0.91 -0.66,2.66 0.55,3.04 -0.39,0.06 -0.76,0.17 -1.1,0.34 -1.16,0.78 -0.64,2.3 0.32,2.8 0.79,0.55 1.76,0.84 2.74,0.82 h 0.06 c 0.1,0 0.19,-0.02 0.28,-0.03 0.03,-0.02 0.05,-0.05 0.07,-0.07 -0.07,-0.01 -0.15,-0.02 -0.23,-0.03 -0.02,0 -0.04,-0.01 -0.06,-0.01 -0.38,-0.06 -0.8,-0.17 -1.19,-0.32 -0.21,-0.08 -0.41,-0.17 -0.6,-0.27 -0.14,-0.07 -0.27,-0.16 -0.39,-0.24 -0.05,-0.03 -0.09,-0.05 -0.12,-0.08 -0.07,-0.05 -0.13,-0.11 -0.19,-0.17 -0.06,-0.06 -0.12,-0.12 -0.17,-0.16 l -0.11,-0.11 c 0,0 -0.05,-0.09 -0.07,-0.12 -0.04,-0.04 -0.07,-0.09 -0.1,-0.15 -0.04,-0.06 -0.07,-0.13 -0.09,-0.2 -0.03,-0.06 -0.05,-0.11 -0.05,-0.17 -0.03,-0.12 -0.04,-0.24 -0.03,-0.36 0.11,-0.41 0.57,-0.62 1.05,-0.58 0.29,0 0.6,0.02 0.9,0.06 0.11,0.01 0.22,0.03 0.32,0.05 0.61,0.11 1.22,0.3 1.8,0.56 0.25,0.11 0.5,0.23 0.75,0.36 0.02,0.01 0.04,0.02 0.06,0.03 0.09,0.05 0.18,0.11 0.27,0.16 0.05,0.03 0.1,0.06 0.15,0.09 0.33,0.2 0.65,0.41 0.94,0.64 0.04,0.04 0.08,0.07 0.12,0.11 0.03,0.03 0.05,0.05 0.06,0.07 0.02,0.02 0.03,0.04 0.04,0.07 0.06,0.09 0.05,0.17 -0.02,0.27 -0.05,0.08 -0.13,0.16 -0.23,0.27 -0.73,0.66 -1.97,0.85 -3.19,0.99 -0.13,0.02 -0.25,0.04 -0.38,0.05 h -0.06 l -0.48,0.48 c -0.32,0.31 -0.64,0.61 -0.96,0.92 0.17,-0.01 0.34,-0.02 0.51,-0.03 0.35,-0.02 0.7,-0.05 1.05,-0.09 1.51,-0.19 3.1,-0.33 4.36,-1.43 0.54,-0.45 0.76,-1.08 0.65,-1.64 0.3,-0.03 0.57,-0.12 0.84,-0.23 1.05,-0.43 2.24,-1.53 2.06,-2.68 0.27,0.02 0.54,0.03 0.82,-0.02 1.63,-0.22 2.17,-1.87 1.62,-3.17 0.87,-0.14 1.85,-0.63 2.06,-1.57 0.18,-1.13 -0.36,-2.05 -1.22,-2.74 z m -4.52,8.48 c -0.06,0.11 -0.13,0.23 -0.21,0.33 -0.01,0.02 -0.02,0.03 -0.03,0.04 -0.05,0.07 -0.1,0.13 -0.16,0.19 -0.21,0.22 -0.46,0.43 -0.71,0.59 -0.11,0.08 -0.23,0.15 -0.35,0.2 -0.12,0.06 -0.24,0.11 -0.35,0.15 v 0 c -0.12,-0.21 -0.29,-0.4 -0.52,-0.55 -0.09,-0.06 -0.17,-0.12 -0.27,-0.18 -0.09,-0.07 -0.18,-0.13 -0.28,-0.18 -0.12,-0.08 -0.24,-0.16 -0.37,-0.23 -0.02,-0.01 -0.05,-0.03 -0.07,-0.04 -0.02,-0.01 -0.03,-0.02 -0.05,-0.03 -0.09,-0.05 -0.19,-0.1 -0.29,-0.15 -0.01,-0.01 -0.02,-0.01 -0.04,-0.02 -0.02,-0.01 -0.04,-0.02 -0.06,-0.03 -0.17,-0.09 -0.34,-0.17 -0.53,-0.25 -0.17,-0.08 -0.35,-0.16 -0.54,-0.23 h -0.01 c -0.19,-0.07 -0.38,-0.14 -0.57,-0.2 -0.4,-0.13 -0.81,-0.24 -1.22,-0.3 -0.17,-0.03 -0.33,-0.06 -0.5,-0.07 -0.19,-0.02 -0.38,-0.03 -0.57,-0.03 -0.19,0 -0.37,0 -0.56,0.03 -0.76,-0.67 -0.98,-1.78 -0.1,-2.28 0.8,-0.38 2.79,-0.19 4.67,0.3 0.34,0.09 0.69,0.2 1.02,0.31 0.16,0.05 0.32,0.11 0.48,0.17 0.17,0.06 0.34,0.13 0.5,0.2 0.01,0 0.02,0 0.03,0.02 0.08,0.03 0.16,0.07 0.23,0.1 0,0 0.01,0 0.01,0.01 0.08,0.04 0.16,0.08 0.24,0.12 0,0 0.01,0 0.02,0 0.35,0.19 0.66,0.4 0.89,0.62 0.24,0.22 0.4,0.45 0.46,0.69 0,0.23 -0.07,0.47 -0.19,0.69 z m 2.68,-2.19 c -0.3,0.48 -0.93,0.74 -1.52,0.89 -0.03,-0.08 -0.07,-0.17 -0.12,-0.24 -0.05,-0.11 -0.1,-0.21 -0.17,-0.31 -0.06,-0.09 -0.12,-0.18 -0.2,-0.26 -0.04,-0.05 -0.08,-0.1 -0.14,-0.15 -0.06,-0.07 -0.12,-0.14 -0.2,-0.19 l -0.05,-0.05 c -0.05,-0.06 -0.11,-0.1 -0.17,-0.14 -0.07,-0.06 -0.14,-0.11 -0.22,-0.16 -0.08,-0.06 -0.15,-0.1 -0.23,-0.15 h -0.01 c -0.15,-0.1 -0.31,-0.2 -0.48,-0.29 h -0.01 c -0.08,-0.04 -0.16,-0.08 -0.23,-0.12 -0.08,-0.04 -0.16,-0.07 -0.24,-0.11 -0.11,-0.06 -0.23,-0.11 -0.35,-0.15 -0.12,-0.05 -0.24,-0.1 -0.37,-0.14 -0.05,-0.02 -0.09,-0.04 -0.14,-0.05 -0.09,-0.04 -0.17,-0.06 -0.26,-0.09 -0.12,-0.04 -0.25,-0.08 -0.37,-0.11 -0.13,-0.04 -0.26,-0.08 -0.4,-0.11 -0.13,-0.04 -0.26,-0.07 -0.4,-0.1 -0.18,-0.04 -0.36,-0.08 -0.53,-0.11 -0.23,-0.05 -0.45,-0.08 -0.67,-0.11 -0.27,-0.04 -0.54,-0.06 -0.8,-0.08 h -0.02 c -0.12,-0.01 -0.24,-0.02 -0.36,-0.02 -0.31,-0.02 -0.61,-0.02 -0.89,0 -1.11,-1.56 -0.8,-2.32 1.19,-2.44 1.55,-0.03 3.26,0.59 4.84,1.18 0.22,0.09 0.43,0.17 0.65,0.25 0.15,0.05 0.31,0.1 0.48,0.17 0.16,0.06 0.33,0.14 0.5,0.22 0.09,0.04 0.17,0.08 0.26,0.14 0.08,0.03 0.16,0.07 0.24,0.12 0.03,0.02 0.05,0.04 0.08,0.06 0.14,0.09 0.28,0.19 0.41,0.29 0.07,0.05 0.14,0.11 0.2,0.18 0.07,0.05 0.14,0.12 0.2,0.19 0.13,0.13 0.24,0.27 0.33,0.42 0.04,0.05 0.07,0.11 0.1,0.17 0.02,0.03 0.04,0.07 0.05,0.1 0.02,0.05 0.04,0.09 0.05,0.14 0.02,0.06 0.04,0.11 0.05,0.17 0.09,0.31 0.06,0.64 -0.08,0.99 z m 2.16,-3.57 c 0,0 -0.03,0.1 -0.05,0.15 -0.04,0.09 -0.09,0.19 -0.16,0.28 -0.03,0.05 -0.07,0.1 -0.12,0.15 -0.04,0.05 -0.09,0.1 -0.14,0.15 v 0 c -0.07,0.07 -0.14,0.12 -0.23,0.18 -0.08,0.07 -0.17,0.13 -0.28,0.19 -0.1,0.07 -0.21,0.13 -0.33,0.19 l -0.03,-0.06 c -0.15,-0.28 -0.33,-0.52 -0.54,-0.74 -0.21,-0.22 -0.43,-0.42 -0.68,-0.59 -0.04,-0.03 -0.07,-0.06 -0.11,-0.09 -0.1,-0.07 -0.2,-0.14 -0.31,-0.2 -0.01,-0.01 -0.03,-0.02 -0.04,-0.02 -0.06,-0.04 -0.12,-0.08 -0.19,-0.1 -0.05,-0.03 -0.1,-0.06 -0.15,-0.08 -0.17,-0.09 -0.34,-0.16 -0.52,-0.23 -0.03,-0.01 -0.07,-0.03 -0.11,-0.04 -0.18,-0.07 -0.37,-0.13 -0.56,-0.19 -0.9,-0.3 -1.81,-0.63 -2.73,-0.87 -0.26,-1.08 0.49,-1.5 1.66,-1.51 0.22,-0.02 0.46,-0.01 0.73,0.02 0.16,0.02 0.33,0.04 0.51,0.08 h 0.01 c 0.09,0.02 0.2,0.05 0.3,0.06 0.03,0.01 0.05,0.02 0.08,0.02 q 0,0 0.02,0 c 0,0 0.02,0.01 0.03,0.01 0.07,0.02 0.14,0.04 0.22,0.06 0.22,0.06 0.45,0.14 0.67,0.22 0.29,0.11 0.58,0.23 0.85,0.37 0.01,0.01 0.02,0.01 0.03,0.01 0.13,0.07 0.26,0.13 0.37,0.2 0.01,0.01 0.02,0.01 0.03,0.02 0.01,0 0.01,0.01 0.02,0.01 0.02,0.01 0.05,0.02 0.07,0.04 0.11,0.06 0.22,0.13 0.32,0.2 0.05,0.03 0.1,0.07 0.15,0.1 0.01,0 0.02,0.02 0.03,0.02 0.05,0.03 0.1,0.07 0.14,0.11 0.04,0.03 0.08,0.05 0.11,0.08 0.08,0.07 0.15,0.13 0.22,0.2 0.08,0.07 0.15,0.14 0.21,0.21 0.11,0.12 0.21,0.24 0.29,0.37 0.01,0.02 0.03,0.04 0.04,0.07 0.04,0.06 0.07,0.12 0.09,0.18 0.03,0.07 0.06,0.14 0.07,0.21 0.01,0.04 0.02,0.07 0.02,0.11 0.01,0.06 0.02,0.12 0.02,0.18 0,0.09 -0.01,0.17 -0.03,0.26 z"
       id="path25" />
    <g
       id="g30">
      <path
         class="cls-4"
         d="m 279.39,124.29 c -0.73,0.66 -1.97,0.85 -3.19,0.99 -0.13,0.02 -0.25,0.04 -0.38,0.05 h -0.06 c 0.09,-0.08 0.17,-0.16 0.26,-0.25 0.05,-0.04 0.09,-0.08 0.13,-0.13 l 0.36,-0.36 c 0.13,0 0.26,-0.02 0.39,-0.04 0.06,0 0.11,-0.02 0.17,-0.03 -0.04,0 -0.1,0 -0.15,0 -0.1,0 -0.2,0 -0.31,0 h -0.03 c -0.07,0 -0.15,-0.02 -0.23,-0.03 -0.02,0 -0.04,0 -0.06,0 -0.38,-0.06 -0.8,-0.17 -1.19,-0.32 -0.42,-0.16 -0.81,-0.36 -1.12,-0.6 -0.14,-0.11 -0.26,-0.22 -0.36,-0.33 -0.08,-0.07 -0.14,-0.15 -0.18,-0.22 -0.04,-0.05 -0.07,-0.1 -0.1,-0.16 -0.04,-0.06 -0.07,-0.13 -0.09,-0.2 -0.03,-0.06 -0.05,-0.11 -0.05,-0.17 -0.03,-0.12 -0.04,-0.24 -0.03,-0.36 0.11,-0.41 0.57,-0.62 1.05,-0.58 0.3,0 0.61,0.02 0.91,0.06 0.11,0 0.22,0.03 0.32,0.05 0.61,0.11 1.22,0.3 1.8,0.56 0.25,0.11 0.5,0.23 0.75,0.36 0.02,0 0.04,0.02 0.06,0.03 0.09,0.05 0.18,0.11 0.27,0.16 0.05,0.03 0.1,0.06 0.15,0.09 0.33,0.2 0.65,0.41 0.94,0.64 0.38,0.34 0.32,0.44 -0.03,0.8 z"
         id="path26" />
      <path
         class="cls-4"
         d="m 283.22,107.9 c 0.17,0.83 -1.18,1.36 -1.89,1.32 -0.87,-0.14 -1.7,-0.06 -2.46,0.19 -0.22,0.07 -0.44,0.15 -0.65,0.24 h -0.01 c -0.09,0.04 -0.18,0.09 -0.26,0.13 -0.12,0.07 -0.24,0.13 -0.35,0.21 -1.15,0.72 -2.08,1.82 -2.7,3.06 -0.04,0.07 -0.08,0.15 -0.11,0.22 0,-0.01 0.01,-0.02 0.03,-0.03 0.1,-0.17 0.21,-0.33 0.33,-0.48 0,-0.01 0.02,-0.02 0.02,-0.02 0.25,-0.35 0.54,-0.67 0.84,-0.97 0.15,-0.16 0.31,-0.3 0.47,-0.44 0,0.02 -0.01,0.04 -0.01,0.05 0,0.05 -0.01,0.1 -0.01,0.14 0,0.08 0.01,0.16 0.02,0.23 l -0.2,0.2 c -0.39,0.39 -0.77,0.79 -1.16,1.19 -0.02,0 -0.03,0.02 -0.03,0.03 -2.82,2.92 -5.53,5.93 -8.13,9.06 -0.23,0.28 -1.02,1.24 -1.61,1.96 -0.2,0.23 -0.29,0.57 -0.28,0.98 0.01,0.28 0.08,0.6 0.21,0.94 0.01,0.03 0.03,0.06 0.04,0.1 -0.1,0 -0.19,0.02 -0.31,0.03 -0.6,0.04 -1.42,0.03 -2.27,-0.11 -1.72,-0.31 -3.53,-1.25 -4.15,-3.52 -0.87,-3.14 1.73,-4.86 3.42,-5.75 0.71,-0.22 1.21,-0.43 1.36,-0.59 0.47,-0.47 0.55,-0.56 0.84,-0.85 3.69,-3.81 7.49,-8.21 13.11,-8.78 1.08,-0.11 2.19,-0.06 3.28,0.14 0.06,0.01 0.13,0.02 0.2,0.03 0.05,0.01 0.09,0.02 0.14,0.03 0.17,0.04 0.34,0.08 0.5,0.12 0.06,0.02 0.13,0.03 0.2,0.05 0.55,0.17 1.34,0.42 1.58,0.89 z"
         id="path27" />
      <path
         class="cls-4"
         d="m 287.42,115.59 c 0,0.09 0,0.17 -0.03,0.26 0,0.05 -0.03,0.1 -0.05,0.15 -0.04,0.1 -0.09,0.2 -0.16,0.29 -0.03,0.05 -0.07,0.1 -0.12,0.15 -0.04,0.05 -0.09,0.1 -0.14,0.15 -0.07,0.06 -0.14,0.12 -0.23,0.18 -0.08,0.07 -0.17,0.13 -0.28,0.19 -0.1,0.07 -0.21,0.13 -0.33,0.19 l -0.03,-0.06 c -0.3,-0.56 -0.73,-0.99 -1.22,-1.34 -0.04,-0.03 -0.07,-0.06 -0.11,-0.09 -0.1,-0.07 -0.2,-0.14 -0.31,-0.2 0,0 -0.03,-0.02 -0.04,-0.02 -0.06,-0.04 -0.12,-0.08 -0.19,-0.1 -0.05,-0.03 -0.1,-0.06 -0.15,-0.08 -0.17,-0.09 -0.34,-0.16 -0.52,-0.23 -0.03,0 -0.07,-0.03 -0.11,-0.04 -0.18,-0.07 -0.37,-0.13 -0.56,-0.19 -0.9,-0.3 -1.82,-0.63 -2.74,-0.87 -0.26,-1.08 0.49,-1.5 1.67,-1.51 0.22,-0.02 0.46,0 0.73,0.02 0.16,0.02 0.33,0.04 0.51,0.08 v 0 c 0.09,0.02 0.2,0.05 0.3,0.06 0.03,0 0.05,0.02 0.08,0.02 q 0,0 0.02,0 c 0,0 0.02,0 0.03,0 0.07,0.02 0.14,0.04 0.22,0.06 0.22,0.06 0.45,0.14 0.67,0.22 0.29,0.11 0.58,0.23 0.85,0.37 0,0 0.02,0 0.03,0 0.13,0.07 0.26,0.13 0.37,0.2 0,0 0.02,0 0.03,0.02 0,0 0,0 0.02,0 0.02,0 0.05,0.02 0.07,0.04 0.11,0.06 0.22,0.13 0.32,0.2 0.05,0.03 0.1,0.07 0.15,0.1 0,0 0.02,0.02 0.03,0.02 0.05,0.03 0.1,0.07 0.14,0.11 0.04,0.03 0.08,0.05 0.11,0.08 0.08,0.07 0.15,0.13 0.22,0.2 0.08,0.07 0.15,0.14 0.21,0.21 0.11,0.12 0.21,0.24 0.29,0.37 0,0.02 0.03,0.04 0.04,0.07 0.04,0.06 0.07,0.12 0.09,0.18 0.03,0.07 0.06,0.14 0.07,0.21 0,0.04 0.02,0.07 0.02,0.11 0,0.06 0.02,0.12 0.02,0.18 z"
         id="path28" />
      <path
         class="cls-4"
         d="m 285.23,119.42 c -0.3,0.48 -0.93,0.74 -1.52,0.89 -0.03,-0.08 -0.07,-0.17 -0.12,-0.24 -0.05,-0.11 -0.1,-0.21 -0.17,-0.31 -0.06,-0.09 -0.12,-0.18 -0.2,-0.26 -0.04,-0.05 -0.08,-0.1 -0.14,-0.15 -0.06,-0.07 -0.12,-0.14 -0.2,-0.19 l -0.05,-0.05 c -0.05,-0.06 -0.11,-0.1 -0.17,-0.14 -0.07,-0.06 -0.14,-0.11 -0.22,-0.16 -0.08,-0.06 -0.15,-0.1 -0.23,-0.15 v 0 c -0.15,-0.1 -0.31,-0.2 -0.48,-0.29 v 0 c -0.08,-0.04 -0.16,-0.08 -0.24,-0.12 -0.08,-0.04 -0.16,-0.07 -0.24,-0.11 -0.11,-0.06 -0.23,-0.11 -0.35,-0.15 -0.12,-0.05 -0.24,-0.1 -0.37,-0.14 -0.05,-0.02 -0.09,-0.04 -0.14,-0.05 -0.09,-0.04 -0.17,-0.06 -0.26,-0.09 -0.12,-0.04 -0.25,-0.08 -0.37,-0.11 -0.13,-0.04 -0.26,-0.08 -0.4,-0.11 -0.13,-0.04 -0.26,-0.07 -0.4,-0.1 -0.18,-0.04 -0.36,-0.08 -0.53,-0.11 -0.23,-0.05 -0.45,-0.08 -0.67,-0.11 -0.27,-0.04 -0.54,-0.06 -0.8,-0.08 h -0.02 c -0.12,0 -0.24,-0.02 -0.36,-0.02 -0.31,-0.02 -0.61,-0.02 -0.89,0 -1.11,-1.57 -0.8,-2.33 1.19,-2.45 1.77,-0.03 3.73,0.78 5.49,1.43 0.15,0.05 0.31,0.1 0.48,0.17 0.16,0.06 0.33,0.14 0.5,0.22 0.09,0.04 0.17,0.08 0.26,0.14 0.08,0.03 0.16,0.08 0.24,0.13 0.03,0.02 0.05,0.04 0.08,0.06 0.14,0.09 0.28,0.19 0.41,0.29 0.07,0.05 0.14,0.11 0.2,0.18 0.07,0.05 0.14,0.12 0.2,0.19 0.13,0.13 0.24,0.27 0.33,0.42 0.04,0.05 0.07,0.11 0.1,0.17 0.02,0.03 0.04,0.07 0.05,0.1 0.02,0.05 0.04,0.09 0.05,0.14 0.02,0.06 0.04,0.11 0.05,0.17 0.09,0.31 0.06,0.64 -0.08,0.99 z"
         id="path29" />
      <path
         class="cls-4"
         d="m 282.74,120.92 c 0,0.93 -1.09,1.88 -2.01,2.19 -0.12,-0.21 -0.29,-0.4 -0.52,-0.55 -0.09,-0.06 -0.17,-0.12 -0.27,-0.18 -0.09,-0.07 -0.18,-0.13 -0.28,-0.18 -0.12,-0.08 -0.24,-0.16 -0.37,-0.23 -0.02,0 -0.05,-0.03 -0.07,-0.04 -0.02,0 -0.03,-0.02 -0.05,-0.03 -0.09,-0.05 -0.19,-0.1 -0.29,-0.15 0,0 -0.02,0 -0.04,-0.02 -0.02,-0.02 -0.04,-0.02 -0.06,-0.03 -0.17,-0.09 -0.34,-0.17 -0.53,-0.25 -0.17,-0.08 -0.35,-0.16 -0.54,-0.23 v 0 c -0.19,-0.07 -0.38,-0.14 -0.57,-0.2 -0.4,-0.13 -0.81,-0.24 -1.22,-0.3 -0.17,-0.03 -0.33,-0.06 -0.5,-0.07 -0.19,-0.02 -0.38,-0.03 -0.57,-0.03 -0.19,0 -0.38,0 -0.57,0.03 -0.76,-0.67 -0.98,-1.78 -0.1,-2.28 0.81,-0.38 2.8,-0.19 4.67,0.3 0.34,0.09 0.69,0.2 1.02,0.31 0.16,0.05 0.32,0.11 0.48,0.17 0.17,0.06 0.34,0.13 0.5,0.2 0,0 0.02,0 0.03,0.02 0.08,0.03 0.16,0.07 0.23,0.1 0,0 0,0 0,0 0.08,0.04 0.16,0.08 0.24,0.12 0,0 0,0 0.02,0 0.36,0.19 0.67,0.4 0.9,0.62 0.24,0.22 0.4,0.45 0.46,0.69 z"
         id="path30" />
    </g>
  </g>
  <g
     id="g54"
     style="fill:#ffffff">
    <path
       class="cls-2"
       d="M210.96,255.51c-2.24-23.2-23.74-24.71-37.97-25.7l-6.06-.43-.82,6.03c-1.07,7.92-3.87,34.83-4.19,48.81l-.14,5.83,5.78.76c2.5.33,4.94.49,7.31.49,10.78,0,20.08-3.36,26.68-9.74,6.93-6.69,10.36-16.18,9.41-26.05ZM192.53,272.23c-4.15,4.01-10.09,6.08-17.38,6.1.59-10.76,1.99-25.53,3.07-35.05,13.68,1.44,18.93,4.33,19.81,13.48.57,5.9-1.43,11.54-5.5,15.47Z"
       id="path1"
       style="fill:#ffffff" />
    <polygon
       class="cls-2"
       points="103.86 216.1 90.89 215.53 87.82 285.7 141.32 291.3 142.68 278.39 101.32 274.06 103.86 216.1"
       id="polygon1"
       style="fill:#ffffff" />
    <path
       class="cls-2"
       d="M136.6,257.04c-.92.62-2.51,1.37-5.6.65-2.85-.67-3.93-2.04-4.56-3.17-4.24-7.64,1.86-25.69,4.16-32.48.27-.79.51-1.51.71-2.13l-12.33-4.05c-.2.59-.42,1.27-.68,2.02-3.58,10.59-10.24,30.29-3.21,42.94,2.7,4.86,7.17,8.15,12.93,9.5,1.81.43,3.58.64,5.3.64,3.85,0,7.43-1.06,10.53-3.16,10.26-6.93,12.72-22.96,14.34-33.57.3-1.98.56-3.69.82-4.91l-12.45-4.19c-.32,1.56-4.42,28.16-9.98,31.91Z"
       id="path2"
       style="fill:#ffffff" />
    <g
       id="g4"
       style="fill:#ffffff">
      <path
         class="cls-2"
         d="M228.86,244.89l-12.97-.65c-.96,22.02,1.65,46.05,1.76,47.06l12.89-1.63c-.03-.24-2.59-23.93-1.68-44.78Z"
         id="path3"
         style="fill:#ffffff" />
      <path
         class="cls-2"
         d="M229.44,225.47c-5.6-6.36-18.1-1.14-15.91,7.61,1.93,6.39,11.35,7.5,15.54,2.61,2.68-2.73,3.1-7.22.48-10.1l-.11-.13Z"
         id="path4"
         style="fill:#ffffff" />
    </g>
    <path
       class="cls-2"
       d="M395.48,265.01c-12.73,5.52-22.81,5.09-24.9,2.68-1.43-1.64-2.97-5.72-3.84-11.76,8.15-.31,18.3-1.71,20.91-2.08l-1.84-12.85c-6.64.95-14.59,1.77-19.9,1.99-.18-10.32.62-14.13,1.43-15.41,3.79-2.36,15.57-2.65,24.56-1.55l1.59-12.88c-4.01-.5-24.5-2.63-33.87,3.99-6.45,4.56-7.26,14.91-6.49,32.42.31,7.03,1.71,19.85,7.66,26.68,4.08,4.68,10.06,6.23,16.19,6.23,10.15,0,20.7-4.24,23.67-5.53l-5.17-11.91Z"
       id="path5"
       style="fill:#ffffff" />
    <g
       id="g11"
       style="fill:#ffffff">
      <path
         class="cls-2"
         d="M315.62,278.09l-2.99,11.24c-.35,1.19-1.4,1.97-2.57,1.97-.14,0-.29-.02-.43-.04l-.24-.05-8.93-2.38.3-1.24-20.08-5.33,1.88-6.48,26.33,7.01,1.62-6.05,5.1,1.35Z"
         id="path6"
         style="fill:#ffffff" />
      <path
         class="cls-2"
         d="M297.18,240.76c-2.72-11.72-11.64-20.89-23.31-23.95-14.62-3.78-30.13,3.23-36.96,16.67-.15.26-.28.52-.42.8l-.1.2c-.22.44-.41.87-.59,1.33-.18.42-.37.89-.55,1.41-.08.18-.14.37-.2.56-.15.42-.27.85-.4,1.28l-.11.36c-.05.16-.1.32-.14.48-.14.52-.25.98-.34,1.43-.2.92-.36,1.86-.47,2.79-.09.72-.16,1.42-.2,2.04-.04.64-.06,1.26-.05,1.9-.1,14.76,9.79,27.71,24.06,31.49l30.94,8.27.96-3.27,1.89-6.47.07-.26c2.61-9.02,5.82-20.49,6.42-24.17.76-4.25.59-8.7-.5-12.89ZM260.74,267.01c-8.56-2.27-14.5-10.05-14.42-18.91v-.13c-.01-.29,0-.58.03-.93.02-.44.07-.89.13-1.32v-.14c.07-.48.15-.97.26-1.45l.07-.33c.03-.17.07-.33.12-.49l.05-.17.11-.38s.03-.08.04-.12l.31-.95c.11-.34.25-.67.38-.99l.04-.11c.05-.12.11-.24.14-.3l.42-.8c4.06-8.13,13.4-12.38,22.18-10.12,6.99,1.83,12.34,7.35,13.95,14.4l.05.22c.64,2.4.74,4.96.29,7.4l-.03.19c-.24,1.59-1.81,7.79-5.44,20.42l-18.68-4.99Z"
         id="path7"
         style="fill:#ffffff" />
      <g
         id="g10"
         style="fill:#ffffff">
        <path
           class="cls-2"
           d="M278.28,254.33c-.21-.69-.68-1.26-1.32-1.59-.64-.34-1.37-.41-2.06-.2-.69.22-1.25.69-1.59,1.32-1.55,2.94-4.52,2.46-5.1,2.33-.21-.05-.42-.08-.62-.08-1.22,0-2.32.83-2.62,2.06-.36,1.43.48,2.85,1.89,3.25.42.1.8.17,1.21.21,1.61.16,7.09.28,10.02-5.26.33-.63.4-1.36.19-2.04Z"
           id="path8"
           style="fill:#ffffff" />
        <path
           class="cls-2"
           d="M265.74,242.02c-.73,2.67-3.29,4.35-5.95,4.07-.3-.03-.6-.08-.91-.17-2.97-.81-4.72-3.89-3.9-6.86.12-.43.4-.79.79-1.01.39-.22.85-.27,1.28-.16.43.12.79.4,1.01.79.22.39.27.84.16,1.28-.16.57-.08,1.17.22,1.68.29.52.77.89,1.34,1.05.57.15,1.18.08,1.69-.22.51-.3.89-.77,1.04-1.34.13-.44.4-.79.79-1.02.39-.22.84-.27,1.28-.16.43.12.79.4,1.01.79.22.39.27.84.16,1.28Z"
           id="path9"
           style="fill:#ffffff" />
        <path
           class="cls-2"
           d="M271.63,249.43c.3.08.61.14.91.17,1.15.12,2.3-.12,3.32-.7,1.3-.74,2.23-1.93,2.62-3.37.25-.89-.28-1.82-1.17-2.06-.43-.12-.88-.06-1.28.16-.39.22-.67.58-.79,1.01-.32,1.18-1.55,1.88-2.73,1.55s-1.88-1.55-1.55-2.73c.12-.43.06-.89-.16-1.28-.22-.39-.58-.67-1.01-.79-.43-.12-.88-.06-1.27.16s-.67.58-.79,1.02c-.39,1.44-.21,2.94.53,4.24.74,1.3,1.93,2.23,3.37,2.62Z"
           id="path10"
           style="fill:#ffffff" />
      </g>
    </g>
    <path
       class="cls-2"
       d="M346.13,209.86l-12.88,1.62c.02.15,1.89,15.24.91,26.95-.84,9.95-3.58,17.63-7.33,20.56-1.05.82-2.84,1.84-6.2,1.29-1.38-.23-4.28-5.15-4.44-18.91-.14-11.18,1.56-22.34,1.59-22.54l-12.83-1.99c-.08.49-1.88,12.25-1.74,24.54.2,19.41,5.36,30.08,15.32,31.71,1.32.22,2.62.32,3.89.32,4.61,0,8.84-1.42,12.39-4.19,8.66-6.74,11.46-19.87,12.28-29.7,1.1-13.09-.88-28.99-.96-29.66Z"
       id="path11"
       style="fill:#ffffff" />
    <path
       class="cls-2"
       d="m 395.37,148.05 -12.76,-2.37 c -4.17,22.49 -5.47,46.96 -5.53,48.03 l 12.92,1.5 c 0.01,-0.25 1.36,-25.54 5.37,-47.17 z"
       id="path12"
       style="fill:#ffffff" />
    <path
       class="cls-2"
       d="m 178.97,201.09 c -14.02,3.7 -18.4,1.5 -32.67,-10.36 -2.75,-2.28 -5.15,-4.54 -7.4,-6.76 12.11,-16.9 19.62,-45.25 8.84,-79.84 l -12.39,3.86 c 9.29,29.81 3.13,53.17 -5.88,66.83 -6.1,-5.44 -13.1,-9.98 -24.05,-11.9 -6.79,-1.18 -12.64,1.48 -15.64,7.12 -3.98,7.47 -1.98,18.32 4.65,25.24 3.33,3.48 12.72,10.76 28.01,3.42 2.57,-1.23 5.17,-2.94 7.72,-5.11 2.33,2.27 4.91,4.68 7.84,7.12 10.83,9 18.69,14.9 30.82,14.9 3.95,0 8.36,-0.62 13.46,-1.97 z M 116.83,187 c -5.62,2.69 -10,2.46 -13.03,-0.7 -3.13,-3.27 -3.61,-8.2 -2.57,-10.16 0.14,-0.25 0.28,-0.52 1.03,-0.52 0.24,0 0.55,0.03 0.93,0.09 7.87,1.38 12.7,4.37 17.63,8.77 -1.37,1.06 -2.71,1.9 -3.99,2.52 z"
       id="path13"
       style="fill:#ffffff" />
    <path
       class="cls-2"
       d="m 228.2,172.85 -0.03,0.5 c -0.24,4.25 -0.87,15.56 6.8,21.55 2.85,2.22 6.3,3.34 10.33,3.34 2.66,0 5.56,-0.49 8.7,-1.46 l -3.83,-12.4 c -3.4,1.05 -6.09,1.16 -7.2,0.29 -1.06,-0.83 -2.24,-3.34 -1.84,-10.6 l 0.03,-0.57 c 0.14,-2.68 1.92,-41.38 1.92,-41.38 l 0.6,-12.98 c 0,0 0.67,-14.25 0.7,-15.01 h -13 c 0,0.19 -0.66,14.41 -0.66,14.41 l -0.6,12.99 c 0,0 -1.79,38.71 -1.92,41.33 z"
       id="path14"
       style="fill:#ffffff" />
    <path
       class="cls-2"
       d="m 302.02,187.58 c -3.34,1.68 -4.85,1.66 -5.21,1.62 -0.35,-0.46 -2.09,-3.43 -0.76,-14.96 1.02,-8.84 3.43,-19.21 5.37,-27.54 l 0.18,-0.76 -12.21,-4.21 c -0.41,0.89 -0.76,1.96 -1.1,3.25 -4.22,-3.1 -9.75,-5.96 -15.69,-5.88 -4.09,0.03 -10.06,1.46 -15.27,8.09 -8.9,11.33 -9.48,29.48 -1.27,39.64 5.99,7.41 15.27,9.05 24.9,4.35 0.82,-0.42 1.61,-0.89 2.35,-1.41 0.9,4.15 2.65,7.44 5.52,9.69 2.33,1.84 5.04,2.75 8.12,2.75 3.24,0 6.88,-1.01 10.9,-3.03 z m -26.84,-8.02 c -5.95,2.91 -8.18,0.15 -9.02,-0.89 -4,-4.94 -4.27,-16.27 1.38,-23.46 2.18,-2.78 3.99,-3.12 5.15,-3.13 h 0.07 c 4.13,0 9.42,4.31 12.35,7.36 -2.01,8.16 -5.15,17.7 -9.93,20.12 z"
       id="path15"
       style="fill:#ffffff" />
    <path
       class="cls-2"
       d="m 183.82,104.13 h -13.21 c 0.03,0.16 0.66,3.37 0.72,3.81 0.46,3.1 1.02,12.51 -7.89,17.59 l 6.43,11.28 c 15.06,-8.59 15.71,-25.13 13.95,-32.68 z"
       id="path16"
       style="fill:#ffffff" />
    <path
       class="cls-2"
       d="m 371.88,193.76 c -0.05,-0.43 -4.74,-43.63 4.72,-86.7 l -12.63,-2.99 c -9.99,45.33 -5.2,89.29 -4.99,91.14 z"
       id="path17"
       style="fill:#ffffff" />
    <path
       class="cls-2"
       d="m 350.45,156.76 c -3.57,-6.67 -11.37,-11.07 -19.54,-11.07 -0.17,0 -0.35,0.01 -0.52,0.01 -3.61,0.08 -7.03,0.98 -10.14,2.62 0.73,-14.45 2.49,-28.96 4.9,-42.24 l -12.84,-1.96 c -2.18,11.81 -10.36,67.72 -0.63,87.59 l 1.3,2.65 2.85,0.77 c 3.89,1.04 7.37,1.48 10.48,1.48 10.95,0 17.23,-5.48 20.3,-9.35 7.44,-9.37 7.78,-23.13 3.84,-30.5 z m -14.01,22.43 c -3.01,3.8 -7.77,5.17 -14.17,4.08 -1.31,-4.15 -1.99,-9.88 -2.24,-16.38 2.55,-5.27 6.24,-8.11 10.66,-8.21 3.95,-0.07 7.16,2.04 8.31,4.2 1.48,2.76 1.62,11.04 -2.56,16.31 z"
       id="path18"
       style="fill:#ffffff" />
    <path
       class="cls-2"
       d="m 193.07,181.28 c -2.61,3.13 -4.39,6.55 -5.27,9.73 -1.75,6.31 -0.18,12.32 4.18,16.06 3.34,2.86 7.85,4.21 13.5,4.05 6.7,-0.19 15,-2.51 24.83,-6.94 l -5.33,-11.83 c -15.67,7.06 -22.91,6.27 -24.55,4.86 -0.67,-0.58 -0.22,-2.39 -0.12,-2.74 1.25,-4.5 6.58,-9.85 13.34,-11.01 l -2.13,-12.81 c -9.37,1.52 -12.87,-0.71 -13.08,-1.69 -0.25,-1.12 1.23,-3.85 4.83,-4.86 3.8,-1.06 9.26,-0.08 11.04,0.39 l 3.36,-12.54 c -1,-0.27 -9.99,-2.57 -17.9,-0.35 -9.74,2.73 -15.9,11.58 -14.01,20.15 0.8,3.65 3.12,7.17 7.31,9.52 z"
       id="path19"
       style="fill:#ffffff" />
    <g
       id="g53"
       style="fill:#ffffff">
      <path
         class="cls-2"
         d="M102.16,347.09c-.34.66-.75,1.22-1.25,1.67-.49.44-1.07.78-1.72,1.01-.65.23-1.38.34-2.18.34-.66,0-1.27-.08-1.84-.23-.57-.15-1.09-.37-1.56-.67-.47-.3-.89-.66-1.25-1.09-.36-.43-.67-.93-.92-1.48-.25-.56-.44-1.18-.57-1.85s-.19-1.4-.19-2.18.06-1.51.19-2.18c.13-.68.32-1.29.57-1.85s.56-1.05.92-1.48c.36-.43.78-.8,1.25-1.09.47-.3.99-.52,1.56-.68.57-.15,1.18-.22,1.84-.22.8,0,1.53.11,2.18.34.65.22,1.23.56,1.72,1.01.5.45.91,1,1.25,1.67.34.66.59,1.43.75,2.3h2.87c-.2-1.25-.56-2.37-1.06-3.35-.5-.99-1.13-1.83-1.88-2.51-.76-.69-1.63-1.21-2.61-1.58-.98-.36-2.06-.54-3.23-.54-.91,0-1.77.11-2.57.33-.81.22-1.56.54-2.24.96s-1.29.92-1.83,1.52c-.55.6-1.01,1.27-1.38,2.03-.38.75-.67,1.57-.87,2.46-.2.9-.3,1.85-.3,2.86s.1,1.96.3,2.85c.2.9.49,1.72.87,2.47.37.75.83,1.43,1.38,2.03.54.6,1.15,1.1,1.83,1.52.68.41,1.43.73,2.24.96.8.22,1.66.33,2.57.33,1.17,0,2.25-.18,3.23-.54.98-.37,1.85-.89,2.61-1.58.75-.69,1.38-1.52,1.88-2.51.5-.99.86-2.1,1.06-3.35h-2.87c-.16.87-.41,1.64-.75,2.3Z"
         id="path33"
         style="fill:#ffffff" />
      <path
         class="cls-2"
         d="M117.23,337.32c-.8,0-1.52.11-2.17.34-.64.22-1.21.54-1.7.96-.49.42-.9.94-1.23,1.54-.32.59-.55,1.24-.72,1.97v-4.81h-2.76v15.04h2.76v-7.45c0-.84.1-1.57.29-2.19.2-.62.52-1.13.97-1.54.46-.41,1.05-.72,1.8-.92s1.67-.3,2.77-.3h.67v-2.64h-.68Z"
         id="path34"
         style="fill:#ffffff" />
      <path
         class="cls-2"
         d="M133.32,341.52c-.33-.96-.8-1.79-1.42-2.47-.61-.68-1.35-1.21-2.22-1.58-.87-.37-1.84-.56-2.92-.56s-2.09.19-2.98.57c-.9.38-1.67.92-2.31,1.61-.64.7-1.14,1.53-1.49,2.5-.35.97-.52,2.05-.52,3.23s.17,2.27.53,3.25c.35.98.85,1.82,1.5,2.51.65.7,1.43,1.24,2.33,1.62.91.38,1.92.57,3.03.57.88,0,1.69-.12,2.45-.37.76-.24,1.43-.6,2.03-1.06.59-.47,1.09-1.03,1.51-1.7.41-.67.72-1.42.91-2.26h-2.76c-.18.47-.4.89-.67,1.25-.26.37-.56.67-.9.91-.34.24-.71.43-1.13.55-.42.12-.88.18-1.37.18-.73,0-1.38-.12-1.96-.37s-1.07-.61-1.48-1.08c-.4-.46-.72-1.03-.94-1.69-.13-.4-.22-.82-.26-1.28h11.49c.02-.2.03-.39.04-.56s.01-.34.01-.51c0-1.2-.17-2.29-.5-3.26ZM122.33,343.46c.05-.31.12-.61.21-.89.21-.67.51-1.24.9-1.71.4-.47.87-.83,1.43-1.07.57-.25,1.2-.38,1.9-.38s1.3.12,1.83.36c.53.24.97.59,1.34,1.06.36.46.64,1.03.83,1.71.08.29.14.59.18.92h-8.62ZM127.97,331.94l-2.14,4.36h1.91l2.96-4.36h-2.73Z"
         id="path35"
         style="fill:#ffffff" />
      <path
         class="cls-2"
         d="M149.74,340.7c-.33-.81-.8-1.49-1.41-2.05-.62-.56-1.37-.99-2.25-1.29-.88-.3-1.88-.45-2.99-.45-1.05,0-2,.14-2.85.4-.84.26-1.56.64-2.15,1.13-.6.49-1.05,1.09-1.37,1.78-.32.7-.48,1.48-.48,2.34h2.76c0-.47.08-.9.24-1.29.17-.39.41-.72.74-.99.33-.28.75-.49,1.26-.64.5-.15,1.11-.22,1.8-.22s1.3.09,1.84.28c.55.18,1.01.45,1.39.8.39.35.68.77.89,1.27.2.5.31,1.05.31,1.67v.35h-5.81c-.91,0-1.72.1-2.45.31-.72.2-1.33.49-1.84.88-.51.38-.9.85-1.17,1.4-.27.55-.4,1.17-.4,1.85s.13,1.31.39,1.86c.26.56.63,1.04,1.11,1.44.48.39,1.06.7,1.73.92.67.21,1.42.32,2.24.32.54,0,1.04-.05,1.53-.14.48-.09.93-.23,1.35-.41s.81-.4,1.17-.66c.35-.26.67-.56.95-.9.29-.33.53-.7.73-1.11.2-.38.36-.8.47-1.25v4.06h2.76v-8.92c0-1.02-.16-1.94-.49-2.74ZM147.47,346.52c0,.38-.06.73-.18,1.07-.12.33-.3.64-.53.93-.22.28-.5.54-.82.77-.32.22-.69.42-1.09.57-.41.16-.85.29-1.32.37-.48.09-.98.13-1.51.13-.57,0-1.07-.05-1.5-.14-.43-.1-.8-.24-1.09-.43-.3-.19-.52-.42-.68-.7-.15-.27-.22-.59-.22-.94s.06-.63.2-.88c.13-.26.33-.47.59-.64.26-.18.59-.31.97-.39.39-.09.84-.13,1.35-.13h5.83v.41Z"
         id="path36"
         style="fill:#ffffff" />
      <path
         class="cls-2"
         d="M152.28,337.32v2.32h9.78v-2.32h-9.78ZM160.54,350.2c-.43.07-.81.11-1.12.11-.41,0-.76-.06-1.05-.18-.29-.12-.54-.3-.72-.53-.19-.24-.33-.55-.43-.91-.09-.37-.14-.8-.14-1.3v-13.53h-2.76v13.52c0,.89.1,1.66.3,2.33.21.67.5,1.23.89,1.69.4.45.88.79,1.45,1.02.58.23,1.24.34,1.99.34.46,0,.95-.04,1.46-.12.52-.09,1.07-.22,1.65-.39v-2.39c-.58.15-1.09.27-1.52.34Z"
         id="path37"
         style="fill:#ffffff" />
      <path
         class="cls-2"
         d="M177.6,341.52c-.33-.96-.81-1.79-1.42-2.47-.61-.68-1.36-1.21-2.22-1.58-.87-.37-1.85-.56-2.92-.56s-2.09.19-2.99.57c-.89.38-1.66.92-2.31,1.61-.64.7-1.13,1.53-1.48,2.5s-.53,2.05-.53,3.23.18,2.27.53,3.25c.36.98.86,1.82,1.51,2.51.65.7,1.42,1.24,2.33,1.62.91.38,1.92.57,3.03.57.87,0,1.69-.12,2.45-.37.75-.24,1.43-.6,2.02-1.06.6-.47,1.1-1.03,1.51-1.7.42-.67.72-1.42.92-2.26h-2.76c-.19.47-.41.89-.67,1.25-.26.37-.56.67-.9.91s-.72.43-1.14.55c-.41.12-.87.18-1.37.18-.72,0-1.37-.12-1.95-.37-.58-.25-1.07-.61-1.48-1.08-.41-.46-.72-1.03-.94-1.69-.13-.4-.22-.82-.27-1.28h11.5c.02-.2.03-.39.04-.56,0-.17.01-.34.01-.51,0-1.2-.17-2.29-.5-3.26ZM166.6,343.46c.05-.31.12-.61.21-.89.21-.67.52-1.24.91-1.71.39-.47.87-.83,1.43-1.07.56-.25,1.2-.38,1.9-.38s1.3.12,1.82.36c.53.24.98.59,1.34,1.06.37.46.65,1.03.83,1.71.08.29.15.59.19.92h-8.63Z"
         id="path38"
         style="fill:#ffffff" />
      <path
         class="cls-2"
         d="M191.61,337.32v8.14c0,.51-.05.98-.14,1.41-.09.44-.22.83-.4,1.19-.17.36-.38.67-.64.95-.25.27-.54.51-.87.69-.33.19-.7.33-1.1.43-.39.1-.82.14-1.29.14-.64,0-1.21-.09-1.69-.28-.48-.19-.88-.48-1.21-.86-.32-.38-.56-.85-.72-1.42-.16-.56-.24-1.22-.24-1.98v-8.41h-2.76v8.41c0,1.09.12,2.07.38,2.95.25.87.6,1.6,1.07,2.21.47.61,1.04,1.07,1.72,1.4.68.32,1.45.48,2.31.48.7,0,1.36-.11,1.96-.33.61-.23,1.15-.55,1.63-.96.48-.42.89-.92,1.23-1.52.33-.58.58-1.24.76-1.96v4.36h2.76v-15.04h-2.76Z"
         id="path39"
         style="fill:#ffffff" />
      <path
         class="cls-2"
         d="M205.82,337.32c-.8,0-1.53.11-2.17.34-.65.22-1.21.54-1.7.96-.49.42-.9.94-1.23,1.54-.32.59-.56,1.24-.73,1.97v-4.81h-2.76v15.04h2.76v-7.45c0-.84.1-1.57.3-2.19.19-.62.52-1.13.97-1.54.45-.41,1.05-.72,1.8-.92.74-.2,1.66-.3,2.77-.3h.67v-2.64h-.68Z"
         id="path40"
         style="fill:#ffffff" />
      <path
         class="cls-2"
         d="M227.42,332.17v9.8c-.19-.75-.45-1.44-.79-2.05-.35-.63-.76-1.17-1.24-1.61-.48-.45-1.02-.79-1.62-1.03-.6-.25-1.24-.37-1.93-.37-.62,0-1.21.09-1.76.27s-1.07.43-1.54.76c-.47.33-.89.73-1.27,1.2-.38.48-.7,1.01-.97,1.59-.26.59-.47,1.23-.61,1.92-.14.69-.21,1.42-.21,2.19s.07,1.5.21,2.19.35,1.33.61,1.92c.27.59.59,1.12.97,1.59s.8.87,1.27,1.2c.47.33.99.59,1.54.76.55.18,1.14.27,1.76.27.69,0,1.33-.12,1.93-.36s1.14-.58,1.62-1.03c.48-.45.89-.99,1.24-1.62.34-.61.6-1.3.79-2.05v4.65h2.76v-20.19h-2.76ZM227.28,346.44c-.1.49-.24.94-.42,1.35-.18.41-.41.77-.68,1.09-.26.32-.57.58-.91.8-.35.21-.73.38-1.14.49-.42.12-.87.17-1.35.17-.74,0-1.39-.12-1.95-.36-.56-.23-1.04-.59-1.42-1.05-.39-.47-.68-1.04-.88-1.73-.19-.68-.29-1.47-.29-2.36s.1-1.68.29-2.36c.2-.69.49-1.26.88-1.73.38-.46.85-.81,1.42-1.05.56-.24,1.21-.36,1.95-.36.48,0,.93.06,1.35.17.41.12.79.28,1.14.5.34.21.65.48.91.79.27.32.5.68.68,1.09.18.41.32.86.42,1.35.09.49.14,1.03.14,1.6s-.05,1.1-.14,1.6Z"
         id="path41"
         style="fill:#ffffff" />
      <path
         class="cls-2"
         d="M233.11,332.86l.4,9.11h2.04l.43-9.11h-2.87Z"
         id="path42"
         style="fill:#ffffff" />
      <path
         class="cls-2"
         d="M251.83,341.52c-.34-.96-.81-1.79-1.42-2.47-.62-.68-1.36-1.21-2.23-1.58-.86-.37-1.84-.56-2.91-.56s-2.09.19-2.99.57c-.9.38-1.67.92-2.31,1.61-.64.7-1.13,1.53-1.48,2.5-.35.97-.53,2.05-.53,3.23s.18,2.27.53,3.25c.36.98.86,1.82,1.51,2.51.65.7,1.42,1.24,2.33,1.62.91.38,1.92.57,3.02.57.88,0,1.7-.12,2.46-.37.75-.24,1.43-.6,2.02-1.06.6-.47,1.1-1.03,1.51-1.7.42-.67.72-1.42.92-2.26h-2.77c-.18.47-.4.89-.66,1.25-.26.37-.56.67-.9.91-.34.24-.72.43-1.14.55-.42.12-.87.18-1.37.18-.72,0-1.37-.12-1.95-.37-.58-.25-1.07-.61-1.48-1.08-.41-.46-.72-1.03-.94-1.69-.13-.4-.22-.82-.27-1.28h11.5c.02-.2.03-.39.03-.56.01-.17.01-.34.01-.51,0-1.2-.16-2.29-.49-3.26ZM240.83,343.46c.05-.31.12-.61.21-.89.21-.67.51-1.24.91-1.71.39-.47.87-.83,1.43-1.07.56-.25,1.2-.38,1.9-.38s1.29.12,1.82.36c.53.24.98.59,1.34,1.06.37.46.64,1.03.83,1.71.08.29.15.59.19.92h-8.63Z"
         id="path43"
         style="fill:#ffffff" />
      <path
         class="cls-2"
         d="M262.29,344.71l5.52-7.39h-3.11l-4.33,5.93-4.44-5.93h-3.27l5.59,7.43-5.89,7.61h3.1l4.71-6.16,4.84,6.16h3.27l-5.99-7.65Z"
         id="path44"
         style="fill:#ffffff" />
      <path
         class="cls-2"
         d="M284.99,342.65c-.14-.69-.35-1.33-.61-1.92-.26-.58-.59-1.11-.97-1.59-.37-.47-.8-.87-1.27-1.2s-.98-.58-1.54-.76c-.55-.18-1.14-.27-1.76-.27-.69,0-1.33.12-1.93.37-.6.24-1.14.58-1.62,1.03-.48.44-.89.98-1.24,1.61-.34.61-.6,1.3-.79,2.05v-4.65h-2.76v20.19h2.76v-9.8c.19.75.45,1.44.79,2.05.35.63.76,1.17,1.24,1.62.48.45,1.02.79,1.62,1.03.6.24,1.24.36,1.93.36.62,0,1.21-.09,1.76-.27.56-.17,1.07-.43,1.54-.76s.9-.73,1.27-1.2c.38-.47.71-1,.97-1.59s.47-1.23.61-1.92c.14-.69.21-1.42.21-2.19s-.07-1.5-.21-2.19ZM282.15,347.2c-.2.69-.49,1.26-.88,1.73-.38.46-.85.82-1.42,1.05-.56.24-1.21.36-1.95.36-.48,0-.93-.05-1.35-.17-.41-.11-.79-.28-1.14-.49-.34-.22-.64-.48-.91-.8-.27-.32-.5-.68-.68-1.09-.18-.41-.32-.86-.41-1.35-.1-.5-.15-1.03-.15-1.6s.05-1.11.15-1.6c.09-.49.23-.94.41-1.35.18-.41.41-.77.68-1.09.27-.31.57-.58.91-.79.35-.22.73-.38,1.14-.5.42-.11.87-.17,1.35-.17.74,0,1.39.12,1.95.36.57.24,1.04.59,1.43,1.05.38.47.67,1.04.87,1.73.19.68.29,1.47.29,2.36s-.1,1.68-.29,2.36Z"
         id="path45"
         style="fill:#ffffff" />
      <path
         class="cls-2"
         d="M301.25,341.52c-.33-.96-.8-1.79-1.42-2.47-.61-.68-1.35-1.21-2.22-1.58-.87-.37-1.84-.56-2.92-.56s-2.08.19-2.98.57c-.9.38-1.67.92-2.31,1.61-.64.7-1.14,1.53-1.49,2.5-.35.97-.52,2.05-.52,3.23s.17,2.27.53,3.25c.35.98.85,1.82,1.5,2.51.65.7,1.43,1.24,2.33,1.62.91.38,1.92.57,3.03.57.88,0,1.7-.12,2.45-.37.76-.24,1.43-.6,2.03-1.06.59-.47,1.09-1.03,1.51-1.7.41-.67.72-1.42.91-2.26h-2.76c-.18.47-.4.89-.66,1.25-.27.37-.57.67-.91.91-.33.24-.71.43-1.13.55-.42.12-.88.18-1.37.18-.73,0-1.38-.12-1.96-.37s-1.07-.61-1.48-1.08c-.4-.46-.72-1.03-.93-1.69-.13-.4-.22-.82-.27-1.28h11.49c.02-.2.03-.39.04-.56.01-.17.01-.34.01-.51,0-1.2-.17-2.29-.5-3.26ZM290.26,343.46c.05-.31.12-.61.21-.89.21-.67.51-1.24.9-1.71.4-.47.87-.83,1.44-1.07.56-.25,1.19-.38,1.89-.38s1.3.12,1.83.36c.53.24.98.59,1.34,1.06.36.46.64,1.03.83,1.71.08.29.14.59.18.92h-8.62ZM295.91,331.94l-2.15,4.36h1.91l2.96-4.36h-2.72Z"
         id="path46"
         style="fill:#ffffff" />
      <path
         class="cls-2"
         d="M312.86,337.32c-.8,0-1.52.11-2.17.34-.64.22-1.21.54-1.7.96-.49.42-.9.94-1.23,1.54-.32.6-.57,1.27-.73,2.01v-4.85h-2.76v15.04h2.76v-7.45c0-.84.1-1.57.3-2.19.19-.62.52-1.13.97-1.54.45-.41,1.05-.72,1.8-.92.74-.2,1.67-.3,2.77-.3h.67v-2.64h-.68Z"
         id="path47"
         style="fill:#ffffff" />
      <path
         class="cls-2"
         d="M315.97,332.17v3.41h2.9v-3.41h-2.9ZM316.04,337.32v15.04h2.76v-15.04h-2.76Z"
         id="path48"
         style="fill:#ffffff" />
      <path
         class="cls-2"
         d="M335.19,341.52c-.33-.96-.81-1.79-1.42-2.47-.61-.68-1.36-1.21-2.22-1.58-.87-.37-1.85-.56-2.92-.56s-2.09.19-2.99.57c-.89.38-1.66.92-2.31,1.61-.64.7-1.13,1.53-1.48,2.5-.35.97-.53,2.05-.53,3.23s.18,2.27.53,3.25c.36.98.86,1.82,1.51,2.51.65.7,1.42,1.24,2.33,1.62.91.38,1.92.57,3.03.57.87,0,1.69-.12,2.45-.37.75-.24,1.43-.6,2.02-1.06.6-.47,1.1-1.03,1.51-1.7.42-.67.72-1.42.92-2.26h-2.76c-.19.47-.41.89-.67,1.25-.26.37-.56.67-.9.91-.34.24-.72.43-1.14.55-.41.12-.87.18-1.37.18-.72,0-1.37-.12-1.95-.37-.58-.25-1.07-.61-1.48-1.08-.41-.46-.72-1.03-.94-1.69-.13-.4-.22-.82-.26-1.28h11.49c.02-.2.03-.39.04-.56,0-.17.01-.34.01-.51,0-1.2-.17-2.29-.5-3.26ZM324.2,343.46c.04-.31.11-.61.2-.89.21-.67.52-1.24.91-1.71.39-.47.87-.83,1.43-1.07.56-.25,1.2-.38,1.9-.38s1.3.12,1.83.36c.53.24.97.59,1.34,1.06.36.46.64,1.03.82,1.71.08.29.15.59.19.92h-8.62Z"
         id="path49"
         style="fill:#ffffff" />
      <path
         class="cls-2"
         d="M351.65,341.01c-.25-.87-.61-1.61-1.08-2.22-.46-.6-1.04-1.07-1.71-1.39-.68-.32-1.45-.49-2.31-.49-.7,0-1.36.12-1.97.34-.6.22-1.15.54-1.63.96-.48.41-.89.92-1.22,1.52-.33.57-.58,1.23-.76,1.96v-4.37h-2.76v15.04h2.76v-8.14c0-.5.05-.98.14-1.41.09-.43.22-.83.39-1.19.18-.35.39-.67.64-.94.26-.28.55-.51.88-.7.33-.18.69-.33,1.09-.42.4-.1.83-.15,1.29-.15.65,0,1.21.1,1.7.29.48.19.88.47,1.2.85.33.38.57.85.73,1.42.16.57.23,1.23.23,1.98v8.41h2.77v-8.41c0-1.09-.13-2.07-.38-2.94Z"
         id="path50"
         style="fill:#ffffff" />
      <path
         class="cls-2"
         d="M365.56,348.09c-.21.43-.49.81-.83,1.14-.34.32-.76.58-1.23.76-.49.19-1.04.28-1.66.28-.71,0-1.35-.12-1.92-.37-.56-.26-1.05-.62-1.45-1.08-.39-.47-.7-1.04-.91-1.71-.21-.67-.32-1.43-.32-2.27s.11-1.6.32-2.27c.21-.67.52-1.24.91-1.71.4-.47.89-.83,1.45-1.07.57-.25,1.21-.38,1.92-.38.62,0,1.17.09,1.66.28.47.19.89.44,1.23.76.34.33.62.71.83,1.14.22.44.37.9.46,1.4h2.76c-.11-.85-.35-1.65-.71-2.39-.35-.74-.83-1.38-1.41-1.93-.59-.54-1.29-.97-2.1-1.29-.81-.31-1.72-.47-2.73-.47-.73,0-1.43.09-2.07.26-.65.17-1.25.42-1.79.74-.55.32-1.04.72-1.47,1.18-.43.47-.79,1-1.09,1.58-.3.59-.53,1.23-.69,1.93-.16.7-.24,1.45-.24,2.24s.08,1.54.24,2.24c.16.7.39,1.34.69,1.93.3.59.67,1.11,1.1,1.58.43.46.92.86,1.46,1.18.54.33,1.14.57,1.79.74.64.18,1.34.26,2.07.26,1.01,0,1.92-.16,2.73-.47.81-.31,1.5-.74,2.09-1.29.59-.54,1.07-1.19,1.42-1.93.36-.73.6-1.53.71-2.39h-2.76c-.09.5-.24.96-.46,1.4Z"
         id="path51"
         style="fill:#ffffff" />
      <path
         class="cls-2"
         d="M384.83,341.52c-.33-.96-.8-1.79-1.42-2.47-.61-.68-1.35-1.21-2.22-1.58-.87-.37-1.84-.56-2.92-.56s-2.09.19-2.98.57c-.9.38-1.67.92-2.31,1.61-.64.7-1.14,1.53-1.49,2.5-.35.97-.52,2.05-.52,3.23s.17,2.27.53,3.25c.35.98.85,1.82,1.5,2.51.65.7,1.43,1.24,2.33,1.62.91.38,1.92.57,3.03.57.88,0,1.69-.12,2.45-.37.76-.24,1.43-.6,2.03-1.06.59-.47,1.09-1.03,1.51-1.7.41-.67.72-1.42.91-2.26h-2.76c-.18.47-.4.89-.67,1.25-.26.37-.56.67-.9.91-.34.24-.71.43-1.13.55-.42.12-.88.18-1.37.18-.73,0-1.38-.12-1.96-.37-.58-.25-1.07-.61-1.48-1.08-.4-.46-.72-1.03-.93-1.69-.13-.4-.22-.82-.27-1.28h11.49c.02-.2.03-.39.04-.56s.01-.34.01-.51c0-1.2-.17-2.29-.5-3.26ZM373.84,343.46c.05-.31.12-.61.21-.89.21-.67.51-1.24.9-1.71.4-.47.87-.83,1.43-1.07.57-.25,1.2-.38,1.9-.38s1.3.12,1.83.36c.53.24.97.59,1.34,1.06.36.46.64,1.03.83,1.71.08.29.14.59.18.92h-8.62Z"
         id="path52"
         style="fill:#ffffff" />
      <path
         class="cls-2"
         d="M400.67,346.56c-.18-.45-.43-.83-.74-1.15-.3-.32-.66-.58-1.07-.79-.4-.21-.83-.39-1.28-.52-.45-.14-.9-.25-1.36-.34-.46-.08-.91-.16-1.33-.22l-1-.16c-.28-.05-.56-.09-.85-.14-.28-.05-.56-.11-.83-.17-.26-.07-.51-.15-.74-.25-.24-.09-.44-.2-.61-.34-.17-.13-.31-.29-.41-.46-.1-.18-.15-.39-.15-.63,0-.31.09-.59.27-.85.17-.26.42-.48.75-.66.32-.19.71-.33,1.16-.43.45-.1.94-.15,1.48-.15.61,0,1.14.06,1.61.18.46.13.85.3,1.17.53.31.22.55.49.71.81.16.31.24.67.24,1.05h2.7c0-.76-.14-1.44-.43-2.05-.28-.62-.7-1.14-1.25-1.57-.54-.43-1.22-.76-2.02-.99-.79-.23-1.7-.35-2.73-.35s-1.87.11-2.65.32c-.79.22-1.45.52-2,.92-.55.39-.97.87-1.26,1.43-.3.56-.44,1.19-.44,1.88,0,.55.08,1.02.26,1.43.17.4.41.74.7,1.04.29.29.63.54,1.02.73.38.2.78.36,1.2.49.43.13.85.24,1.28.32.42.09.83.16,1.21.22l1,.17c.33.06.65.12.98.18.32.06.62.13.92.21.29.08.57.18.82.29.25.11.47.24.66.4.18.15.33.33.43.54.11.2.16.44.16.72,0,.35-.09.66-.27.93s-.45.5-.79.69c-.35.18-.77.32-1.27.42-.5.1-1.07.14-1.71.14-.71,0-1.33-.06-1.85-.17-.52-.12-.96-.3-1.3-.53-.35-.22-.6-.51-.77-.84-.17-.34-.26-.72-.26-1.15h-2.69c0,.82.15,1.54.43,2.17.29.63.72,1.16,1.3,1.59.57.44,1.29.76,2.14.99.86.22,1.86.33,3.01.33,1.09,0,2.06-.1,2.89-.31.84-.2,1.54-.5,2.11-.9.57-.39,1-.88,1.29-1.45.29-.58.44-1.24.44-1.98,0-.6-.1-1.13-.28-1.57Z"
         id="path53"
         style="fill:#ffffff" />
    </g>
  </g>
</svg>
